<?xml version="1.0" encoding="UTF-8"?>
<!DOCTYPE svg PUBLIC "-//W3C//DTD SVG 1.1//EN" "http://www.w3.org/Graphics/SVG/1.1/DTD/svg11.dtd">
<svg xmlns="http://www.w3.org/2000/svg" version="1.1" width="460px" height="74px" style="shape-rendering:geometricPrecision; text-rendering:geometricPrecision; image-rendering:optimizeQuality; fill-rule:evenodd; clip-rule:evenodd" xmlns:xlink="http://www.w3.org/1999/xlink">
<g><path  fill="#FFFFFF" d="M 27.5,-0.5 C 28.5,-0.5 29.5,-0.5 30.5,-0.5C 37.9524,17.0175 45.119,34.6842 52,52.5C 53.4443,54.1554 55.2776,54.822 57.5,54.5C 57.5,55.5 57.5,56.5 57.5,57.5C 51.5,57.5 45.5,57.5 39.5,57.5C 39.4208,56.0695 39.7542,54.7362 40.5,53.5C 38.624,48.5388 36.9574,43.5388 35.5,38.5C 30.1563,38.334 24.8229,38.5006 19.5,39C 17.1115,43.9413 15.4449,49.1079 14.5,54.5C 16.1667,54.5 17.8333,54.5 19.5,54.5C 19.5,55.5 19.5,56.5 19.5,57.5C 12.8333,57.5 6.16667,57.5 -0.5,57.5C -0.5,56.5 -0.5,55.5 -0.5,54.5C 2.04443,54.8957 4.2111,54.229 6,52.5C 13.2721,34.8445 20.4387,17.1779 27.5,-0.5 Z M 26.5,18.5 C 29.2907,22.9967 31.624,27.83 33.5,33C 29.4589,33.8265 25.4589,33.6599 21.5,32.5C 23.568,27.9617 25.2347,23.295 26.5,18.5 Z"/></g>
<g><path  fill="#FFFFFF" d="M 199.5,-0.5 C 203.5,-0.5 207.5,-0.5 211.5,-0.5C 213.218,0.223978 215.052,0.890644 217,1.5C 217.667,5.16667 217.667,8.83333 217,12.5C 216.692,13.3081 216.192,13.9747 215.5,14.5C 213.893,11.4754 211.893,8.6421 209.5,6C 205.833,4 202.167,4 198.5,6C 195.71,8.21033 194.877,11.0437 196,14.5C 200.378,18.9352 205.212,22.7685 210.5,26C 218.91,33.034 220.744,41.534 216,51.5C 212.984,55.0917 209.151,57.2584 204.5,58C 199.5,58.6667 194.5,58.6667 189.5,58C 187.481,57.5503 185.648,56.717 184,55.5C 183.667,50.8262 183.833,46.1595 184.5,41.5C 185.5,41.5 186.5,41.5 187.5,41.5C 188.409,50.6249 193.409,54.4582 202.5,53C 208.45,50.5233 209.95,46.3566 207,40.5C 200.667,34.8333 194.333,29.1667 188,23.5C 182.564,10.9534 186.397,2.95342 199.5,-0.5 Z"/></g>
<g><path  fill="#FFFFFF" d="M 319.5,-0.5 C 323.5,-0.5 327.5,-0.5 331.5,-0.5C 349.092,3.29938 356.925,14.2994 355,32.5C 354.488,37.0376 352.988,41.2042 350.5,45C 360.324,49.7448 369.99,54.7448 379.5,60C 392.183,63.3834 402.517,59.8834 410.5,49.5C 411.208,51.8925 410.542,54.0591 408.5,56C 409.308,56.3076 409.975,56.8076 410.5,57.5C 404.903,65.2913 397.57,70.6246 388.5,73.5C 382.167,73.5 375.833,73.5 369.5,73.5C 357.247,70.1231 346.08,64.4565 336,56.5C 322.617,61.0698 310.95,58.4031 301,48.5C 292.194,34.9457 292.527,21.6124 302,8.5C 307.029,3.73669 312.862,0.736688 319.5,-0.5 Z M 320.5,4.5 C 336.086,6.26295 343.753,15.0963 343.5,31C 343.567,34.9727 342.901,38.806 341.5,42.5C 333.153,43.4249 325.653,46.4249 319,51.5C 308.329,43.5023 304.329,32.8357 307,19.5C 308.61,11.7307 313.11,6.73067 320.5,4.5 Z M 335.5,49.5 C 330.659,49.8492 325.992,50.6825 321.5,52C 325.955,48.8765 330.622,48.0432 335.5,49.5 Z M 392.5,66.5 C 386.367,68.9735 380.034,69.1402 373.5,67C 363.276,63.2211 353.609,58.3878 344.5,52.5C 344.667,52.1667 344.833,51.8333 345,51.5C 353.967,56.4 363.133,60.9 372.5,65C 379.092,66.3288 385.759,66.8288 392.5,66.5 Z"/></g>
<g><path  fill="#FFFFFF" d="M 58.5,0.5 C 68.1724,0.333531 77.8391,0.500198 87.5,1C 99.4167,5.05452 102.583,12.8879 97,24.5C 95.3859,27.2366 93.2192,29.4033 90.5,31C 95.4497,38.2843 100.783,45.2843 106.5,52C 108.769,54.0229 111.436,54.8563 114.5,54.5C 114.5,55.5 114.5,56.5 114.5,57.5C 108.71,57.9038 103.044,57.4038 97.5,56C 91.7831,49.2843 86.4497,42.2843 81.5,35C 79.5273,34.5045 77.5273,34.3379 75.5,34.5C 75.1304,40.9251 75.6304,47.2584 77,53.5C 78.6995,54.4061 80.5328,54.7394 82.5,54.5C 82.5,55.5 82.5,56.5 82.5,57.5C 74.8333,57.5 67.1667,57.5 59.5,57.5C 59.5,56.5 59.5,55.5 59.5,54.5C 61.1667,54.5 62.8333,54.5 64.5,54.5C 65.6222,38.1984 65.7889,21.865 65,5.5C 63.2111,3.77099 61.0444,3.10433 58.5,3.5C 58.5,2.5 58.5,1.5 58.5,0.5 Z M 75.5,5.5 C 86.6307,5.72303 91.1307,11.3897 89,22.5C 86.8817,29.2288 82.5484,31.2288 76,28.5C 75.5003,20.8406 75.3336,13.1739 75.5,5.5 Z"/></g>
<g><path  fill="#FFFFFF" d="M 105.5,0.5 C 121.167,0.5 136.833,0.5 152.5,0.5C 153.021,4.48086 153.354,8.48086 153.5,12.5C 150.943,10.6245 148.276,8.79116 145.5,7C 141.848,6.50137 138.182,6.3347 134.5,6.5C 134.333,21.5037 134.5,36.5037 135,51.5C 136.287,54.1446 138.453,55.1446 141.5,54.5C 141.5,55.5 141.5,56.5 141.5,57.5C 133.167,57.5 124.833,57.5 116.5,57.5C 116.5,56.5 116.5,55.5 116.5,54.5C 119.079,54.9167 121.246,54.25 123,52.5C 123.5,37.1703 123.667,21.837 123.5,6.5C 118.63,6.03157 113.964,6.69824 109.5,8.5C 108.571,9.68884 108.238,11.0222 108.5,12.5C 107.5,12.5 106.5,12.5 105.5,12.5C 105.5,8.5 105.5,4.5 105.5,0.5 Z"/></g>
<g><path  fill="#FFFFFF" d="M 155.5,0.5 C 163.167,0.5 170.833,0.5 178.5,0.5C 178.5,1.5 178.5,2.5 178.5,3.5C 176.278,3.17798 174.444,3.84464 173,5.5C 172.333,21.1667 172.333,36.8333 173,52.5C 174.789,54.229 176.956,54.8957 179.5,54.5C 179.5,55.5 179.5,56.5 179.5,57.5C 171.5,57.5 163.5,57.5 155.5,57.5C 155.5,56.5 155.5,55.5 155.5,54.5C 157.467,54.7394 159.301,54.4061 161,53.5C 161.833,37.1565 161.666,20.8231 160.5,4.5C 158.929,3.69063 157.262,3.35729 155.5,3.5C 155.5,2.5 155.5,1.5 155.5,0.5 Z"/></g>
<g><path  fill="#FFFFFF" d="M 220.5,0.5 C 236.167,0.5 251.833,0.5 267.5,0.5C 267.249,3.90899 267.583,7.24232 268.5,10.5C 268.167,11.5 267.5,12.1667 266.5,12.5C 265.05,11.3446 264.05,9.84459 263.5,8C 258.934,6.69076 254.267,6.19076 249.5,6.5C 249.333,21.837 249.5,37.1703 250,52.5C 251.789,54.229 253.956,54.8957 256.5,54.5C 256.5,55.5 256.5,56.5 256.5,57.5C 248.167,57.5 239.833,57.5 231.5,57.5C 231.5,56.5 231.5,55.5 231.5,54.5C 234.044,54.8957 236.211,54.229 238,52.5C 238.5,37.1703 238.667,21.837 238.5,6.5C 234.818,6.3347 231.152,6.50137 227.5,7C 224.841,8.17106 222.841,10.0044 221.5,12.5C 220.509,8.55461 220.176,4.55461 220.5,0.5 Z"/></g>
<g><path  fill="#FFFFFF" d="M 270.5,0.5 C 278.167,0.5 285.833,0.5 293.5,0.5C 293.5,1.5 293.5,2.5 293.5,3.5C 291.738,3.35729 290.071,3.69063 288.5,4.5C 287.334,20.4896 287.167,36.4896 288,52.5C 289.754,54.25 291.921,54.9167 294.5,54.5C 294.5,55.5 294.5,56.5 294.5,57.5C 286.5,57.5 278.5,57.5 270.5,57.5C 270.5,56.5 270.5,55.5 270.5,54.5C 272.766,54.8588 274.599,54.1922 276,52.5C 276.667,36.8333 276.667,21.1667 276,5.5C 274.556,3.84464 272.722,3.17798 270.5,3.5C 270.5,2.5 270.5,1.5 270.5,0.5 Z"/></g>
<g><path  fill="#FFFFFF" d="M 358.5,0.5 C 366.5,0.5 374.5,0.5 382.5,0.5C 382.5,1.5 382.5,2.5 382.5,3.5C 380.738,3.35729 379.071,3.69063 377.5,4.5C 376.334,16.8198 376.167,29.1532 377,41.5C 380.303,52.3635 387.136,55.5301 397.5,51C 400.84,48.3283 402.674,44.8283 403,40.5C 403.667,28.8333 403.667,17.1667 403,5.5C 401.211,3.77099 399.044,3.10433 396.5,3.5C 396.5,2.5 396.5,1.5 396.5,0.5C 403.5,0.5 410.5,0.5 417.5,0.5C 417.5,1.5 417.5,2.5 417.5,3.5C 415.278,3.17798 413.444,3.84464 412,5.5C 411.667,16.1667 411.333,26.8333 411,37.5C 409.675,51.4937 402.008,58.4937 388,58.5C 375.688,59.1801 368.354,53.5134 366,41.5C 365.667,29.5 365.333,17.5 365,5.5C 363.211,3.77099 361.044,3.10433 358.5,3.5C 358.5,2.5 358.5,1.5 358.5,0.5 Z"/></g>
<g><path  fill="#FFFFFF" d="M 459.5,44.5 C 459.5,48.1667 459.5,51.8333 459.5,55.5C 447.082,57.4503 434.415,58.117 421.5,57.5C 421.5,56.5 421.5,55.5 421.5,54.5C 424.238,55.0352 426.072,54.0352 427,51.5C 427.667,36.1667 427.667,20.8333 427,5.5C 425.211,3.77099 423.044,3.10433 420.5,3.5C 420.5,2.5 420.5,1.5 420.5,0.5C 433.167,0.5 445.833,0.5 458.5,0.5C 457.728,4.4517 457.395,8.4517 457.5,12.5C 456.5,12.5 455.5,12.5 454.5,12.5C 454.528,10.4176 453.861,8.5843 452.5,7C 447.845,6.50085 443.179,6.33418 438.5,6.5C 438.5,12.5 438.5,18.5 438.5,24.5C 444.998,24.9185 451.332,24.2518 457.5,22.5C 456.869,26.8038 456.369,31.1371 456,35.5C 455.586,35.9574 455.086,36.2907 454.5,36.5C 453.866,34.4332 452.866,32.5998 451.5,31C 447.23,29.9246 442.897,29.4246 438.5,29.5C 438.187,36.7546 438.52,43.9213 439.5,51C 444.5,53 449.5,53 454.5,51C 455.732,48.3594 457.398,46.1927 459.5,44.5 Z"/></g>
</svg>
