<?xml version="1.0" encoding="UTF-8"?>
<!DOCTYPE svg PUBLIC "-//W3C//DTD SVG 1.1//EN" "http://www.w3.org/Graphics/SVG/1.1/DTD/svg11.dtd">
<svg xmlns="http://www.w3.org/2000/svg" version="1.1" width="4027px" height="578px" style="shape-rendering:geometricPrecision; text-rendering:geometricPrecision; image-rendering:optimizeQuality; fill-rule:evenodd; clip-rule:evenodd" xmlns:xlink="http://www.w3.org/1999/xlink">
<g><path  fill="#FFFFFF" d="M 2094.5,35.5 C 2096.17,35.5 2097.83,35.5 2099.5,35.5C 2099.5,204.5 2099.5,373.5 2099.5,542.5C 2097.83,542.5 2096.17,542.5 2094.5,542.5C 2094.5,373.5 2094.5,204.5 2094.5,35.5 Z"/></g>
<g><path  fill="#FFFFFF" d="M 3176.5,35.5 C 3192.4,33.8151 3207.4,36.6484 3221.5,44C 3225.43,46.1318 3228.76,48.9652 3231.5,52.5C 3228.88,56.4572 3225.88,60.1239 3222.5,63.5C 3208.04,50.904 3191.37,46.7374 3172.5,51C 3154.44,57.7289 3143.6,70.5622 3140,89.5C 3136.66,109.351 3142.16,126.184 3156.5,140C 3178.26,153.966 3199.76,153.466 3221,138.5C 3221.5,128.506 3221.67,118.506 3221.5,108.5C 3209.17,108.5 3196.83,108.5 3184.5,108.5C 3184.5,103.833 3184.5,99.1667 3184.5,94.5C 3201.83,94.5 3219.17,94.5 3236.5,94.5C 3236.67,111.17 3236.5,127.837 3236,144.5C 3215.79,162.009 3192.63,167.509 3166.5,161C 3137.97,150.611 3123.64,130.111 3123.5,99.5C 3125.29,64.7345 3142.95,43.4012 3176.5,35.5 Z"/></g>
<g><path  fill="#FFFFFF" d="M 2275.5,36.5 C 2280.43,36.1975 2285.26,36.5308 2290,37.5C 2308.5,78.5 2327,119.5 2345.5,160.5C 2339.95,161.806 2334.45,161.806 2329,160.5C 2324.5,150.167 2320,139.833 2315.5,129.5C 2293.5,128.167 2271.5,128.167 2249.5,129.5C 2244.56,139.715 2239.89,150.048 2235.5,160.5C 2230.17,161.833 2224.83,161.833 2219.5,160.5C 2238.37,119.221 2257.03,77.8878 2275.5,36.5 Z M 2281.5,55.5 C 2283.47,57.428 2284.97,59.7613 2286,62.5C 2293.7,80.0744 2301.54,97.5744 2309.5,115C 2291.49,115.833 2273.49,115.666 2255.5,114.5C 2264.56,94.963 2273.23,75.2964 2281.5,55.5 Z"/></g>
<g><path  fill="#FFFFFF" d="M 3008.5,36.5 C 3013.21,36.1734 3017.88,36.5067 3022.5,37.5C 3041.4,78.6301 3059.73,119.963 3077.5,161.5C 3072.13,161.828 3066.79,161.495 3061.5,160.5C 3056.96,149.926 3052.3,139.426 3047.5,129C 3025.83,128.333 3004.17,128.333 2982.5,129C 2977.28,139.314 2972.45,149.814 2968,160.5C 2962.89,161.804 2957.72,161.804 2952.5,160.5C 2970.98,119.053 2989.65,77.72 3008.5,36.5 Z M 3014.5,54.5 C 3023.48,74.3983 3032.48,94.3983 3041.5,114.5C 3023.85,115.5 3006.18,115.833 2988.5,115.5C 2997.17,95.1667 3005.83,74.8333 3014.5,54.5 Z"/></g>
<g><path  fill="#FFFFFF" d="M 2403.5,37.5 C 2433.17,37.5 2462.83,37.5 2492.5,37.5C 2492.5,42.1667 2492.5,46.8333 2492.5,51.5C 2467.83,51.5 2443.17,51.5 2418.5,51.5C 2418.5,65.8333 2418.5,80.1667 2418.5,94.5C 2440.5,94.5 2462.5,94.5 2484.5,94.5C 2484.5,98.8333 2484.5,103.167 2484.5,107.5C 2462.5,107.5 2440.5,107.5 2418.5,107.5C 2418.5,125.5 2418.5,143.5 2418.5,161.5C 2413.5,161.5 2408.5,161.5 2403.5,161.5C 2403.5,120.167 2403.5,78.8333 2403.5,37.5 Z"/></g>
<g><path  fill="#FFFFFF" d="M 2553.5,37.5 C 2583.17,37.5 2612.83,37.5 2642.5,37.5C 2642.5,42.1667 2642.5,46.8333 2642.5,51.5C 2617.83,51.5 2593.17,51.5 2568.5,51.5C 2568.5,65.8333 2568.5,80.1667 2568.5,94.5C 2590.5,94.5 2612.5,94.5 2634.5,94.5C 2634.5,98.8333 2634.5,103.167 2634.5,107.5C 2612.5,107.5 2590.5,107.5 2568.5,107.5C 2568.5,125.5 2568.5,143.5 2568.5,161.5C 2563.5,161.5 2558.5,161.5 2553.5,161.5C 2553.5,120.167 2553.5,78.8333 2553.5,37.5 Z"/></g>
<g><path  fill="#FFFFFF" d="M 2704.5,37.5 C 2709.5,37.5 2714.5,37.5 2719.5,37.5C 2719.5,78.8333 2719.5,120.167 2719.5,161.5C 2714.5,161.5 2709.5,161.5 2704.5,161.5C 2704.5,120.167 2704.5,78.8333 2704.5,37.5 Z"/></g>
<g><path  fill="#FFFFFF" d="M 2789.5,37.5 C 2794.18,37.3342 2798.85,37.5008 2803.5,38C 2829.05,69.88 2854.21,102.047 2879,134.5C 2879.5,102.168 2879.67,69.8351 2879.5,37.5C 2884.5,37.5 2889.5,37.5 2894.5,37.5C 2894.5,78.8333 2894.5,120.167 2894.5,161.5C 2889.9,161.8 2885.4,161.467 2881,160.5C 2855.33,127.5 2829.67,94.5 2804,61.5C 2803.5,94.8317 2803.33,128.165 2803.5,161.5C 2798.83,161.5 2794.17,161.5 2789.5,161.5C 2789.5,120.167 2789.5,78.8333 2789.5,37.5 Z"/></g>
<g><path  fill="#FFFFFF" d="M 3301.5,37.5 C 3331.17,37.5 3360.83,37.5 3390.5,37.5C 3390.5,42.1667 3390.5,46.8333 3390.5,51.5C 3365.83,51.5 3341.17,51.5 3316.5,51.5C 3316.5,65.1667 3316.5,78.8333 3316.5,92.5C 3338.83,92.5 3361.17,92.5 3383.5,92.5C 3383.5,96.8333 3383.5,101.167 3383.5,105.5C 3361.17,105.5 3338.83,105.5 3316.5,105.5C 3316.5,119.5 3316.5,133.5 3316.5,147.5C 3341.5,147.5 3366.5,147.5 3391.5,147.5C 3391.5,152.167 3391.5,156.833 3391.5,161.5C 3361.5,161.5 3331.5,161.5 3301.5,161.5C 3301.5,120.167 3301.5,78.8333 3301.5,37.5 Z"/></g>
<g><path  fill="#FFFFFF" d="M 264.5,41.5 C 299.073,41.1706 333.573,41.5039 368,42.5C 455.245,208.658 542.745,374.658 630.5,540.5C 600.167,541.833 569.833,541.833 539.5,540.5C 520.627,504.587 501.627,468.754 482.5,433C 378.498,432.833 274.498,432.333 170.5,431.5C 185.457,399.045 209.457,375.878 242.5,362C 252.481,357.784 262.814,354.784 273.5,353C 329.167,352.667 384.833,352.333 440.5,352C 398.618,273.737 357.118,195.237 316,116.5C 241.245,257.675 166.745,399.009 92.5,540.5C 62.5074,541.5 32.5074,541.833 2.5,541.5C 89.2904,374.587 176.624,207.921 264.5,41.5 Z"/></g>
<g><path  fill="#FFFFFF" d="M 864.5,41.5 C 968.197,41.0132 1071.86,41.5132 1175.5,43C 1213.59,51.7996 1243.42,72.2996 1265,104.5C 1268.07,109.964 1270.57,115.631 1272.5,121.5C 1139.17,121.333 1005.83,121.5 872.5,122C 847.489,125.756 829.989,139.256 820,162.5C 809.598,196.504 819.098,223.338 848.5,243C 854.537,246.123 860.87,248.457 867.5,250C 966.474,251.317 1065.47,251.984 1164.5,252C 1227.29,259.633 1269.46,293.133 1291,352.5C 1307.32,413.402 1292.49,465.235 1246.5,508C 1224.11,526.361 1198.45,537.361 1169.5,541C 1067.5,541.667 965.5,541.667 863.5,541C 821.785,532.907 789.618,511.074 767,475.5C 764.316,471.137 762.482,466.47 761.5,461.5C 894.834,461.667 1028.17,461.5 1161.5,461C 1182.89,457.254 1199.06,446.087 1210,427.5C 1225.16,391.312 1216.66,362.145 1184.5,340C 1176.04,335.514 1167.04,332.848 1157.5,332C 1057.81,331.979 958.146,331.313 858.5,330C 793.429,316.929 753.263,278.096 738,213.5C 729.009,148.064 751.842,97.2312 806.5,61C 824.702,50.7116 844.036,44.2116 864.5,41.5 Z"/></g>
<g><path  fill="#FFFFFF" d="M 1430.5,41.5 C 1555.5,41.3333 1680.5,41.5 1805.5,42C 1882.78,52.9561 1934.62,95.1227 1961,168.5C 1978.91,232.611 1967.24,290.611 1926,342.5C 1894.47,378.183 1854.97,399.017 1807.5,405C 1715.83,405.833 1624.16,405.667 1532.5,404.5C 1556.16,365.665 1589.83,339.832 1633.5,327C 1687.5,326.667 1741.5,326.333 1795.5,326C 1842.91,319.588 1873.41,293.421 1887,247.5C 1896.05,190.766 1874.55,150.6 1822.5,127C 1812.8,123.495 1802.8,121.495 1792.5,121C 1698.17,121.113 1603.83,121.279 1509.5,121.5C 1509.5,261.5 1509.5,401.5 1509.5,541.5C 1483.17,541.5 1456.83,541.5 1430.5,541.5C 1430.5,374.833 1430.5,208.167 1430.5,41.5 Z"/></g>
<g><path  fill="#FFFFFF" d="M 2265.5,225.5 C 2282.97,225.099 2298.3,230.433 2311.5,241.5C 2308.85,245.482 2305.85,249.149 2302.5,252.5C 2290.6,242.588 2276.93,238.422 2261.5,240C 2247.01,242.783 2240.84,251.283 2243,265.5C 2246.31,271.911 2251.47,276.078 2258.5,278C 2268.43,280.92 2278.43,283.587 2288.5,286C 2310.93,293.021 2319.09,307.855 2313,330.5C 2306.46,344.035 2295.62,351.535 2280.5,353C 2257.81,355.438 2238.47,348.771 2222.5,333C 2225.33,329.339 2228.33,325.839 2231.5,322.5C 2248.92,339.356 2268.92,343.523 2291.5,335C 2301.68,326.138 2302.68,316.472 2294.5,306C 2283.22,300.019 2271.22,296.019 2258.5,294C 2227.61,285.075 2219.78,266.575 2235,238.5C 2243.67,230.411 2253.83,226.077 2265.5,225.5 Z"/></g>
<g><path  fill="#FFFFFF" d="M 2734.5,225.5 C 2777.76,225.093 2801.43,246.427 2805.5,289.5C 2804.53,316.958 2791.87,336.791 2767.5,349C 2738.79,359.062 2713.95,353.228 2693,331.5C 2678.1,309.663 2675.44,286.33 2685,261.5C 2695.46,241.035 2711.96,229.035 2734.5,225.5 Z M 2734.5,239.5 C 2764.43,238.262 2782.59,252.262 2789,281.5C 2792.14,306.06 2782.97,324.227 2761.5,336C 2729.07,345.367 2707.23,334.2 2696,302.5C 2691.61,280.681 2697.77,262.514 2714.5,248C 2720.89,244.266 2727.56,241.433 2734.5,239.5 Z"/></g>
<g><path  fill="#FFFFFF" d="M 2420.5,226.5 C 2425.21,226.173 2429.88,226.507 2434.5,227.5C 2453.23,268.703 2471.56,310.037 2489.5,351.5C 2484.13,351.828 2478.79,351.495 2473.5,350.5C 2468.87,340.25 2464.54,329.916 2460.5,319.5C 2438.16,319.167 2415.82,319.5 2393.5,320.5C 2388.9,330.458 2384.4,340.458 2380,350.5C 2374.89,351.804 2369.72,351.804 2364.5,350.5C 2382.98,309.053 2401.65,267.72 2420.5,226.5 Z M 2426.5,245.5 C 2435.72,264.957 2444.72,284.624 2453.5,304.5C 2435.85,305.5 2418.18,305.833 2400.5,305.5C 2408.97,285.43 2417.64,265.43 2426.5,245.5 Z"/></g>
<g><path  fill="#FFFFFF" d="M 2548.5,227.5 C 2553.17,227.5 2557.83,227.5 2562.5,227.5C 2562.5,264.167 2562.5,300.833 2562.5,337.5C 2585.5,337.5 2608.5,337.5 2631.5,337.5C 2631.5,342.167 2631.5,346.833 2631.5,351.5C 2603.83,351.5 2576.17,351.5 2548.5,351.5C 2548.5,310.167 2548.5,268.833 2548.5,227.5 Z"/></g>
<g><path  fill="#FFFFFF" d="M 2868.5,227.5 C 2873.18,227.334 2877.85,227.501 2882.5,228C 2908.05,259.88 2933.21,292.047 2958,324.5C 2958.5,292.168 2958.67,259.835 2958.5,227.5C 2963.5,227.5 2968.5,227.5 2973.5,227.5C 2973.5,268.833 2973.5,310.167 2973.5,351.5C 2969.15,351.666 2964.82,351.499 2960.5,351C 2935.03,317.894 2909.19,285.061 2883,252.5C 2882.5,285.498 2882.33,318.498 2882.5,351.5C 2877.83,351.5 2873.17,351.5 2868.5,351.5C 2868.5,310.167 2868.5,268.833 2868.5,227.5 Z"/></g>
<g><path  fill="#FFFFFF" d="M 2595.5,415.5 C 2634.12,414.956 2656.95,433.623 2664,471.5C 2666.65,499.271 2656.49,520.771 2633.5,536C 2617.9,543.557 2601.57,545.557 2584.5,542C 2551.28,530.396 2536.11,506.896 2539,471.5C 2544.48,439.185 2563.31,420.518 2595.5,415.5 Z M 2595.5,429.5 C 2618.63,428.646 2635.13,438.646 2645,459.5C 2654.4,486.977 2647.23,508.81 2623.5,525C 2593.54,536.348 2571.54,527.682 2557.5,499C 2550.9,479.635 2553.73,461.802 2566,445.5C 2574.13,436.856 2583.96,431.523 2595.5,429.5 Z"/></g>
<g><path  fill="#FFFFFF" d="M 3460.5,415.5 C 3502.97,416.136 3525.97,437.636 3529.5,480C 3524.42,525.411 3499.09,546.411 3453.5,543C 3426.11,536.279 3409.61,519.112 3404,491.5C 3400.28,463.46 3409.78,441.294 3432.5,425C 3441.32,419.895 3450.65,416.728 3460.5,415.5 Z M 3460.5,429.5 C 3487.99,429.402 3505.32,442.568 3512.5,469C 3516.9,495.533 3507.23,514.867 3483.5,527C 3456.47,534.562 3436.3,526.062 3423,501.5C 3413.65,475.723 3419.48,454.223 3440.5,437C 3446.89,433.377 3453.55,430.877 3460.5,429.5 Z"/></g>
<g><path  fill="#FFFFFF" d="M 3057.5,416.5 C 3077.91,413.697 3095.91,418.864 3111.5,432C 3108.66,435.672 3105.66,439.172 3102.5,442.5C 3092.36,434.682 3080.86,430.349 3068,429.5C 3055.11,428.932 3046.44,434.599 3042,446.5C 3040.81,453.892 3043.31,459.726 3049.5,464C 3060.64,469.268 3072.31,472.935 3084.5,475C 3096.01,477.827 3105.17,483.994 3112,493.5C 3118.79,526.234 3105.29,542.901 3071.5,543.5C 3054.65,543.605 3039.65,538.439 3026.5,528C 3024.77,526.611 3023.44,524.944 3022.5,523C 3025.32,519.511 3028.15,516.011 3031,512.5C 3045.47,526.435 3062.64,531.935 3082.5,529C 3095.76,525.42 3101.26,516.92 3099,503.5C 3094.45,495.624 3087.61,490.79 3078.5,489C 3063.36,486.957 3049.36,481.957 3036.5,474C 3027.9,464.729 3025.06,453.895 3028,441.5C 3030.6,433.905 3035.1,427.738 3041.5,423C 3046.74,420.315 3052.08,418.148 3057.5,416.5 Z"/></g>
<g><path  fill="#FFFFFF" d="M 3203.5,416.5 C 3218.62,414.692 3232.96,417.192 3246.5,424C 3250.3,426.213 3253.63,428.88 3256.5,432C 3254.36,436.129 3251.53,439.629 3248,442.5C 3236.17,433.004 3222.67,428.837 3207.5,430C 3192.6,432.215 3186.1,440.715 3188,455.5C 3190.56,461.061 3194.73,464.894 3200.5,467C 3210.03,470.134 3219.7,472.8 3229.5,475C 3258.01,482.844 3266.51,500.344 3255,527.5C 3245.16,538.95 3232.66,544.283 3217.5,543.5C 3197.97,543.664 3181.3,536.997 3167.5,523.5C 3170.15,519.518 3173.15,515.851 3176.5,512.5C 3193.47,529.16 3213.13,533.66 3235.5,526C 3246.93,517.324 3248.26,507.324 3239.5,496C 3237.33,494.414 3235,493.08 3232.5,492C 3219.83,488.333 3207.17,484.667 3194.5,481C 3172.03,470.324 3166.53,453.824 3178,431.5C 3184.97,423.658 3193.47,418.658 3203.5,416.5 Z"/></g>
<g><path  fill="#FFFFFF" d="M 2230.5,417.5 C 2247.17,417.333 2263.84,417.5 2280.5,418C 2313.69,420.866 2327.19,438.7 2321,471.5C 2315.04,485.567 2304.54,494.067 2289.5,497C 2274.87,498.373 2260.21,498.873 2245.5,498.5C 2245.5,512.833 2245.5,527.167 2245.5,541.5C 2240.5,541.5 2235.5,541.5 2230.5,541.5C 2230.5,500.167 2230.5,458.833 2230.5,417.5 Z M 2245.5,431.5 C 2257.17,431.333 2268.84,431.5 2280.5,432C 2305.69,436.205 2313.19,450.038 2303,473.5C 2297.59,478.956 2291.09,482.456 2283.5,484C 2270.84,484.5 2258.17,484.667 2245.5,484.5C 2245.5,466.833 2245.5,449.167 2245.5,431.5 Z"/></g>
<g><path  fill="#FFFFFF" d="M 2382.5,417.5 C 2401.5,417.333 2420.5,417.5 2439.5,418C 2474.15,421.82 2486.32,440.32 2476,473.5C 2473.2,477.299 2470.04,480.799 2466.5,484C 2460.55,487.146 2454.55,489.979 2448.5,492.5C 2460.31,508.808 2472.31,524.974 2484.5,541C 2478.14,541.831 2471.81,541.664 2465.5,540.5C 2454.29,525.244 2442.96,510.077 2431.5,495C 2420.17,494.5 2408.84,494.333 2397.5,494.5C 2397.5,510.167 2397.5,525.833 2397.5,541.5C 2392.5,541.5 2387.5,541.5 2382.5,541.5C 2382.5,500.167 2382.5,458.833 2382.5,417.5 Z M 2397.5,431.5 C 2411.5,431.333 2425.5,431.5 2439.5,432C 2462.66,435.501 2469.83,448.001 2461,469.5C 2455.87,475.484 2449.37,478.984 2441.5,480C 2426.84,480.5 2412.17,480.667 2397.5,480.5C 2397.5,464.167 2397.5,447.833 2397.5,431.5 Z"/></g>
<g><path  fill="#FFFFFF" d="M 2727.5,417.5 C 2757.17,417.5 2786.83,417.5 2816.5,417.5C 2816.5,422.167 2816.5,426.833 2816.5,431.5C 2791.83,431.5 2767.17,431.5 2742.5,431.5C 2742.5,445.833 2742.5,460.167 2742.5,474.5C 2764.5,474.5 2786.5,474.5 2808.5,474.5C 2808.5,479.167 2808.5,483.833 2808.5,488.5C 2786.5,488.5 2764.5,488.5 2742.5,488.5C 2742.5,506.167 2742.5,523.833 2742.5,541.5C 2737.5,541.5 2732.5,541.5 2727.5,541.5C 2727.5,500.167 2727.5,458.833 2727.5,417.5 Z"/></g>
<g><path  fill="#FFFFFF" d="M 2877.5,417.5 C 2907.5,417.5 2937.5,417.5 2967.5,417.5C 2967.5,422.167 2967.5,426.833 2967.5,431.5C 2942.5,431.5 2917.5,431.5 2892.5,431.5C 2892.5,445.167 2892.5,458.833 2892.5,472.5C 2914.83,472.5 2937.17,472.5 2959.5,472.5C 2959.5,477.167 2959.5,481.833 2959.5,486.5C 2937.17,486.5 2914.83,486.5 2892.5,486.5C 2892.5,500.5 2892.5,514.5 2892.5,528.5C 2917.83,528.5 2943.17,528.5 2968.5,528.5C 2968.5,532.833 2968.5,537.167 2968.5,541.5C 2938.17,541.5 2907.83,541.5 2877.5,541.5C 2877.5,500.167 2877.5,458.833 2877.5,417.5 Z"/></g>
<g><path  fill="#FFFFFF" d="M 3323.5,417.5 C 3328.5,417.5 3333.5,417.5 3338.5,417.5C 3338.5,458.833 3338.5,500.167 3338.5,541.5C 3333.5,541.5 3328.5,541.5 3323.5,541.5C 3323.5,500.167 3323.5,458.833 3323.5,417.5 Z"/></g>
<g><path  fill="#FFFFFF" d="M 3592.5,417.5 C 3597.18,417.334 3601.85,417.501 3606.5,418C 3631.79,450.076 3656.95,482.243 3682,514.5C 3682.5,482.168 3682.67,449.835 3682.5,417.5C 3687.5,417.5 3692.5,417.5 3697.5,417.5C 3697.5,458.833 3697.5,500.167 3697.5,541.5C 3693.15,541.666 3688.82,541.499 3684.5,541C 3658.55,508.257 3632.71,475.424 3607,442.5C 3606.5,475.498 3606.33,508.498 3606.5,541.5C 3601.83,541.5 3597.17,541.5 3592.5,541.5C 3592.5,500.167 3592.5,458.833 3592.5,417.5 Z"/></g>
<g><path  fill="#FFFFFF" d="M 3810.5,417.5 C 3815.76,417.195 3820.93,417.529 3826,418.5C 3844.47,459.412 3862.63,500.412 3880.5,541.5C 3875.13,541.828 3869.79,541.495 3864.5,540.5C 3859.87,530.25 3855.54,519.916 3851.5,509.5C 3829.16,509.167 3806.82,509.5 3784.5,510.5C 3780.27,520.618 3775.77,530.618 3771,540.5C 3765.89,541.804 3760.72,541.804 3755.5,540.5C 3774.12,499.597 3792.45,458.597 3810.5,417.5 Z M 3817.5,435.5 C 3826.72,454.957 3835.72,474.624 3844.5,494.5C 3826.83,495.833 3809.17,495.833 3791.5,494.5C 3800.45,474.929 3809.12,455.263 3817.5,435.5 Z"/></g>
<g><path  fill="#FFFFFF" d="M 3939.5,417.5 C 3944.5,417.5 3949.5,417.5 3954.5,417.5C 3954.5,454.5 3954.5,491.5 3954.5,528.5C 3977.17,528.5 3999.83,528.5 4022.5,528.5C 4022.5,532.833 4022.5,537.167 4022.5,541.5C 3994.83,541.5 3967.17,541.5 3939.5,541.5C 3939.5,500.167 3939.5,458.833 3939.5,417.5 Z"/></g>
<g><path  fill="#FFFFFF" d="M 695.5,482.5 C 720.716,483.548 731.55,496.548 728,521.5C 718.407,541.282 703.574,546.449 683.5,537C 672.842,529.17 668.675,518.67 671,505.5C 674.899,493.095 683.066,485.429 695.5,482.5 Z"/></g>
<g><path  fill="#FFFFFF" d="M 1338.5,482.5 C 1355.58,481.62 1366.75,489.287 1372,505.5C 1373.49,530.677 1361.66,542.511 1336.5,541C 1322.41,536.734 1314.74,527.234 1313.5,512.5C 1314.66,496.35 1323,486.35 1338.5,482.5 Z"/></g>
</svg>
