<svg width="1730" height="171" viewBox="0 0 1730 171" fill="none" xmlns="http://www.w3.org/2000/svg">
    <path d="M0 87.8988H48.0556C96.1111 87.8988 192.222 87.8988 288.333 98.2488C384.444 108.599 480.556 129.299 576.667 115.52C672.778 101.483 768.889 53.6144 865 25.7988C961.111 -2.01682 1057.22 -8.48557 1153.33 12.0204C1249.44 32.9144 1345.56 80.7832 1441.67 84.4704C1537.78 87.8988 1633.89 46.4988 1681.94 25.7988L1730 5.09881V170.699H1681.94C1633.89 170.699 1537.78 170.699 1441.67 170.699C1345.56 170.699 1249.44 170.699 1153.33 170.699C1057.22 170.699 961.111 170.699 865 170.699C768.889 170.699 672.778 170.699 576.667 170.699C480.556 170.699 384.444 170.699 288.333 170.699C192.222 170.699 96.1111 170.699 48.0556 170.699H0V87.8988Z" fill="#FF9636"/>
</svg>
